<svg version="1.2" xmlns="http://www.w3.org/2000/svg" viewBox="0 0 612 792" width="612" height="792">
	<style>
		tspan { white-space:pre }
		.s0 { fill: #161a1d }
		.s1 { fill: #161a1d;stroke: #000000;stroke-miterlimit:10 }
		.s2 { fill: none;stroke: #adff23;stroke-miterlimit:10 }
		.s3 { fill: #adff23;stroke: #000000;stroke-miterlimit:10 }
	</style>
	<path id="Forma 1" fill-rule="evenodd" class="s0" d="m727-41v953h-843v-953z"/>
	<g id="carpeta">
		<path class="s1" d="m98.48 27.72h430.23c17.19 0 31.12 13.92 31.12 31.11v430.24c0 17.19-13.93 31.11-31.12 31.11h-430.23c-17.19 0-31.12-13.92-31.12-31.11v-430.24c0-17.19 13.93-31.11 31.12-31.11z"/>
		<path class="s2" d="m108.67 171.13c22.36 29.52 46.23 26.5 71.22 0 27.62-28.18 46.88-21.49 62.72 0 20.93 31.99 43.05 24.19 65.81 0q33.03-37.41 69.32 0c22.76 27.22 46.16 29.13 70.43 0 22.53-24.75 46-24.99 70.43 0"/>
		<path class="s3" d="m609 725.5h-453.71l-151.29-151.61v-339.11l382-2.23 1.04 184.71 220.13-1.27z"/>
		<path class="s2" d="m99.59 78.33c22.37 29.53 46.24 26.5 71.23 0 27.62-28.17 46.88-21.49 62.71 0 20.93 32 43.06 24.2 65.82 0q33.03-37.4 69.32 0c22.76 27.22 46.16 29.13 70.43 0 22.52-24.75 46-24.99 70.43 0"/>
	</g>
</svg>
