<svg version="1.2" xmlns="http://www.w3.org/2000/svg" viewBox="0 0 612 792" width="612" height="792">
	<style>
		tspan { white-space:pre }
		.s0 { fill: #161a1d }
		.s1 { fill: #adff23;stroke: #000000;stroke-miterlimit:10 }
		.s2 { fill: none;stroke: #161a1d;stroke-miterlimit:10 }
		.s3 { fill: #161a1d;stroke: #000000;stroke-miterlimit:10 }
	</style>
	<path id="Forma 1" fill-rule="evenodd" class="s0" d="m727-41v953h-843v-953z"/>
	<g id="carpeta oscuro">
		<path class="s1" d="m88.03 36h433.39c17.32 0 31.35 14.03 31.35 31.35v433.39c0 17.32-14.03 31.35-31.35 31.35h-433.39c-17.32 0-31.35-14.03-31.35-31.35v-433.39c0-17.32 14.03-31.35 31.35-31.35z"/>
		<path class="s2" d="m98.29 180.47c22.53 29.74 46.58 26.69 71.75 0 27.82-28.38 47.22-21.65 63.17 0 21.09 32.22 43.38 24.37 66.3 0q33.27-37.68 69.83 0c22.93 27.41 46.5 29.34 70.95 0 22.69-24.94 46.34-25.18 70.95 0"/>
		<path class="s3" d="m609.45 725.94h-457.05l-152.4-152.72v-341.61l384.81-2.24 1.05 186.07 221.75-1.28z"/>
		<path class="s2" d="m89.15 86.99c22.53 29.74 46.58 26.69 71.75 0 27.82-28.38 47.22-21.65 63.17 0 21.09 32.23 43.38 24.37 66.3 0q33.28-37.68 69.83 0c22.93 27.42 46.5 29.34 70.95 0 22.69-24.93 46.34-25.18 70.95 0"/>
	</g>
</svg>
