<?xml version="1.0" encoding="UTF-8"?>
<svg id="Capa_2" data-name="Capa 2" xmlns="http://www.w3.org/2000/svg" viewBox="0 0 173.73 214.47">
  <defs>
    <style>
      .cls-1 {
        fill: #014011;
      }

      .cls-2 {
        fill: #adff23;
      }
    </style>
  </defs>
  <g id="CORASA_IZ" data-name="CORASA IZ">
    <g>
      <polygon class="cls-1" points="169 19.61 168.84 19.91 168.77 20.02 168.77 20.04 167.73 22.01 166.68 23.99 164.45 28.21 161.68 33.46 151.33 53.03 143.38 68.08 87.75 173.33 78.73 190.41 78.73 190.46 72.37 202.43 27.6 179.71 10.18 146.67 10.89 145.32 18.86 130.25 46.79 77.46 51.95 67.71 78.94 16.69 78.94 16.64 86.69 1.97 141.57 13.73 141.58 13.73 155.28 16.67 161.67 18.04 169 19.61"/>
      <polygon class="cls-2" points="173.73 20.61 173.69 20.62 169 19.61 168.84 19.91 168.77 20.02 168.77 20.04 167.73 22.01 166.68 23.99 164.45 28.21 161.68 33.46 151.33 53.03 143.38 68.08 87.75 173.33 78.73 190.41 78.73 190.46 72.37 202.43 27.6 179.71 10.18 146.67 10.89 145.32 18.86 130.25 46.79 77.46 51.95 67.71 78.94 16.69 78.94 16.64 86.69 1.97 84.38 1.47 80.98 .74 77.55 0 75.82 3.27 38.85 73.19 33.69 82.94 4.14 138.83 0 146.66 2.02 150.49 20.97 186.44 76.19 214.47 78.7 209.72 87.73 192.69 87.73 192.64 158.09 59.51 166.04 44.45 166.91 42.81 168.79 39.47 168.79 39.27 171.92 33.34 173.73 29.91 173.73 20.61"/>
    </g>
  </g>
</svg>
