<?xml version="1.0" encoding="UTF-8"?>
<svg id="Capa_2" data-name="Capa 2" xmlns="http://www.w3.org/2000/svg" viewBox="0 0 173.59 214.35">
  <defs>
    <style>
      .cls-1 {
        fill: #014011;
      }

      .cls-2 {
        fill: #adff23;
      }
    </style>
  </defs>
  <g id="CORASA_D" data-name="CORASA D">
    <g>
      <polygon class="cls-1" points="163.38 146.61 146 179.59 101.22 202.31 93.24 187.2 93.24 187.15 84.28 170.25 84.28 170.2 30.71 68.9 22.75 53.84 11.38 32.33 9.39 28.56 6.37 22.85 5.71 21.6 4.75 19.8 4.55 19.42 13.15 17.59 18.05 16.55 31.74 13.65 86.96 1.94 93.65 14.55 93.65 14.6 121.91 68.06 127.06 77.81 155.22 131.07 162.31 144.48 162.35 144.55 163.38 146.61"/>
      <polygon class="cls-2" points="169.95 139.65 140.15 83.28 134.99 73.54 98.27 4.09 96.1 0 93.57 .54 89.18 1.47 86.96 1.94 93.65 14.55 93.65 14.6 121.91 68.06 127.06 77.81 155.22 131.07 162.31 144.48 162.35 144.55 163.19 146.14 163.41 146.55 163.38 146.61 146 179.59 101.22 202.31 93.24 187.2 93.24 187.15 84.28 170.25 84.28 170.2 30.71 68.9 22.75 53.84 11.38 32.33 9.39 28.56 6.37 22.85 5.71 21.6 4.75 19.8 4.55 19.42 .49 20.28 0 20.38 0 30.03 1.14 32.19 3.52 36.71 3.52 36.9 6.15 41.68 8.05 45.27 16.01 60.33 84.23 189.43 93.19 206.38 97.4 214.35 152.62 186.32 171.31 150.87 173.59 146.54 169.95 139.65"/>
    </g>
  </g>
</svg>
