<?xml version="1.0" encoding="UTF-8"?>
<svg id="Capa_2" data-name="Capa 2" xmlns="http://www.w3.org/2000/svg" viewBox="0 0 189.44 403.47">
  <defs>
    <style>
      .cls-1 {
        fill: #014011;
      }

      .cls-2 {
        fill: #adff23;
      }
    </style>
  </defs>
  <g id="BASE">
    <polygon class="cls-1" points="180.44 141.77 180.43 144.08 180.43 146.07 176.86 146.94 173.03 147.87 122.92 160.05 110.98 162.95 106.71 163.99 95.66 166.68 95.03 166.83 94.74 166.9 84.25 164.32 78.68 162.95 66.73 160.01 66.72 160.01 16.83 147.75 13.87 147.02 9.52 145.95 9.51 141.6 9.5 136.03 9.44 106.67 32.39 78.27 155.98 78.27 180.37 106.96 180.41 134.4 180.41 134.41 180.42 141.76 180.44 141.77"/>
    <polygon class="cls-1" points="130.42 69.27 59.07 69.27 68.32 51.4 120.92 51.4 124.14 57.45 124.31 57.78 130.42 69.27"/>
    <polygon class="cls-1" points="90.63 175.15 90.57 175.27 54.31 166.23 72.74 170.76 79.65 172.46 84.7 173.7 89.66 174.92 89.87 174.97 89.88 174.97 90.23 175.06 90.63 175.15"/>
    <polygon class="cls-1" points="107.36 173.09 100.06 175.01 99.99 174.88 100.09 174.86 101.09 174.61 101.1 174.61 104.98 173.67 107.36 173.09"/>
    <polygon class="cls-2" points="188.75 371.24 188.74 375.55 152.28 403.47 95.23 402.49 94.81 402.5 39.33 403.22 0 376 0 374.46 9.03 357.43 9.01 371.28 42.08 394.18 90.22 393.55 90.1 218.01 90.09 212.67 90.09 204.01 93.22 198.08 95.23 194.28 96.65 198.03 99.08 203.61 99.09 208.57 99.09 212.76 99.1 217.92 99.22 393.56 149.29 394.41 179.75 371.09 179.79 354.29 188.75 371.24"/>
    <path class="cls-2" d="M189.41,151.43v-4.42s.01-1.2.01-1.2v-1.72s.01-.01.01-.01l-.02-8.71-.05-31.73-29.22-34.37h-19.52l-6.39-12.01,19.4-19.41V0l-7,7.59v27.36l-15.84,15.84-4.46-8.39h-63.48l-4.53,8.75-16.2-16.2V7.79l-7-7.79v37.85l19.82,19.82-6,11.6h-20.85L.43,103.5l.07,31.95.03,10.36v7.01s53.78,13.41,53.78,13.41l18.43,4.53,6.91,1.7,5.05,1.24,4.96,1.22.21.05h0l.35.09.4.09-.06.12,4.37,1.09,5.12-1.35-.07-.13.1-.02,1-.25h.01l3.88-.94,2.38-.58,82.08-21.61-.03-.05ZM68.32,51.4h52.6l3.22,6.05.17.33,6.11,11.49H59.07l9.25-17.87ZM122.92,160.05l-11.94,2.9-4.27,1.04-11.05,2.69-.63.15-.29.07-10.49-2.58-5.57-1.37-11.95-2.94h-.01l-30.29-7.44-19.6-4.82-2.96-.73-4.35-1.07v-4.35s-.02-5.57-.02-5.57l-.06-29.36,22.95-28.4h123.59l24.39,28.69.04,27.44h0s.01,7.36.01,7.36h.02s-.01,2.32-.01,2.32v1.99l-3.57.87-3.83.93-15.79,3.84-34.32,8.34Z"/>
  </g>
</svg>
